<svg width="48" height="48" viewBox="0 0 48 48" fill="none" xmlns="http://www.w3.org/2000/svg">
  <rect width="48" height="48" rx="12" fill="#EFF6FF"/>
  <path d="M14 14H34V16H14V14Z" fill="#2563EB"/>
  <path d="M14 19H28V21H14V19Z" fill="#2563EB"/>
  <path d="M14 24H31V26H14V24Z" fill="#2563EB"/>
  <path d="M14 29H25V31H14V29Z" fill="#2563EB"/>
  <path d="M14 34H29V36H14V34Z" fill="#2563EB"/>
  <path d="M36 19.5C36 18.6716 36.6716 18 37.5 18C38.3284 18 39 18.6716 39 19.5V34.5C39 35.3284 38.3284 36 37.5 36C36.6716 36 36 35.3284 36 34.5V19.5Z" fill="#0D9488"/>
  <path d="M32 25V25C32 24.4477 32.4477 24 33 24H38C38.5523 24 39 24.4477 39 25V25C39 25.5523 38.5523 26 38 26H33C32.4477 26 32 25.5523 32 25Z" fill="#0D9488"/>
  <path d="M32 29V29C32 28.4477 32.4477 28 33 28H38C38.5523 28 39 28.4477 39 29V29C39 29.5523 38.5523 30 38 30H33C32.4477 30 32 29.5523 32 29Z" fill="#0D9488"/>
</svg>